<svg width="100" height="101" viewBox="0 0 100 101" fill="none" xmlns="http://www.w3.org/2000/svg">
<path d="M53.2383 6.36875C52.1672 6.28967 51.0935 6.25006 50.0195 6.25V0C51.2479 0.000598922 52.4758 0.0464634 53.7008 0.1375L53.2383 6.36875ZM65.7633 9.18125C63.7598 8.40809 61.7022 7.78348 59.607 7.3125L60.9758 1.2125C63.3758 1.75 65.7216 2.4625 68.0133 3.35L65.7633 9.18125ZM74.3258 13.6187C73.4322 13.0228 72.517 12.4599 71.582 11.9313L74.6633 6.49375C76.8005 7.70412 78.8456 9.07031 80.782 10.5813L76.9383 15.5125C76.0909 14.8515 75.2195 14.2219 74.3258 13.625V13.6187ZM85.7883 24.8063C84.5518 23.05 83.1877 21.3872 81.707 19.8313L86.232 15.5188C87.9237 17.3062 89.4799 19.2021 90.9008 21.2062L85.7883 24.8063ZM90.4383 33.2563C90.0285 32.2652 89.5823 31.2895 89.1008 30.3313L94.682 27.5187C95.7853 29.7133 96.7253 31.9861 97.4945 34.3188L91.557 36.275C91.2213 35.2554 90.8481 34.2484 90.4383 33.2563ZM93.7508 48.925C93.7 46.7771 93.4911 44.6359 93.1258 42.5187L99.282 41.4562C99.6987 43.8729 99.9404 46.3104 100.007 48.7687L93.7508 48.925ZM92.932 58.5375C93.1404 57.4792 93.3091 56.4167 93.4383 55.35L99.6445 56.1188C99.3434 58.557 98.8629 60.9698 98.207 63.3375L92.182 61.6687C92.4695 60.6396 92.7195 59.5958 92.932 58.5375ZM86.982 73.4062C88.132 71.5896 89.1445 69.6979 90.0195 67.7312L95.732 70.2625C94.732 72.5125 93.5758 74.675 92.2633 76.75L86.982 73.4062ZM80.957 80.9375C81.7195 80.175 82.4487 79.3875 83.1445 78.575L87.882 82.6562C87.0801 83.5867 86.2441 84.4873 85.3758 85.3562L80.957 80.9375Z" fill="#353535"/>
<path d="M50.0195 6.25C42.825 6.25052 35.7417 8.02529 29.3969 11.4171C23.0521 14.8089 17.6417 19.7131 13.6449 25.6953C9.64808 31.6775 7.18824 38.553 6.48324 45.7129C5.77824 52.8728 6.84984 60.096 9.60313 66.7428C12.3564 73.3896 16.7064 79.2549 22.2678 83.8191C27.8292 88.3832 34.4304 91.5055 41.4866 92.9092C48.5428 94.3129 55.8364 93.9548 62.7211 91.8666C69.6059 89.7784 75.8695 86.0245 80.957 80.9375L85.3758 85.3562C79.5616 91.1736 72.4023 95.4671 64.5323 97.8562C56.6622 100.245 48.3243 100.656 40.2574 99.053C32.1905 97.4496 24.6436 93.8812 18.2855 88.6639C11.9273 83.4467 6.95412 76.7417 3.80661 69.1431C0.659108 61.5444 -0.565562 53.2867 0.241112 45.1017C1.04779 36.9166 3.8609 29.0569 8.4312 22.2189C13.0015 15.3809 19.1879 9.77569 26.4422 5.90002C33.6965 2.02434 41.7948 -0.00217958 50.0195 1.75911e-06V6.25Z" fill="#353535"/>
<path d="M46.8945 18.75C47.7233 18.75 48.5182 19.0792 49.1042 19.6653C49.6903 20.2513 50.0195 21.0462 50.0195 21.875V54.4375L70.3195 66.0375C71.0182 66.459 71.5244 67.1371 71.7297 67.9268C71.9351 68.7165 71.8234 69.5553 71.4186 70.2637C71.0137 70.9722 70.3478 71.4943 69.5632 71.7183C68.7785 71.9423 67.9374 71.8505 67.2195 71.4625L45.3445 58.9625C44.8662 58.6893 44.4687 58.2945 44.1921 57.8182C43.9155 57.3418 43.7697 56.8008 43.7695 56.25V21.875C43.7695 21.0462 44.0988 20.2513 44.6848 19.6653C45.2709 19.0792 46.0657 18.75 46.8945 18.75Z" fill="#353535"/>
</svg>
